<?xml version="1.0" encoding="UTF-8" standalone="no"?>
<!-- Created with Inkscape (http://www.inkscape.org/) -->

<svg
   width="1800"
   height="1800"
   id="svg8709"
   sodipodi:version="0.32"
   inkscape:version="1.2.2 (b0a8486, 2022-12-01)"
   version="1.0"
   sodipodi:docname="A1.svg"
   inkscape:output_extension="org.inkscape.output.svg.inkscape"
   xmlns:inkscape="http://www.inkscape.org/namespaces/inkscape"
   xmlns:sodipodi="http://sodipodi.sourceforge.net/DTD/sodipodi-0.dtd"
   xmlns="http://www.w3.org/2000/svg"
   xmlns:svg="http://www.w3.org/2000/svg"
   xmlns:rdf="http://www.w3.org/1999/02/22-rdf-syntax-ns#"
   xmlns:cc="http://creativecommons.org/ns#"
   xmlns:dc="http://purl.org/dc/elements/1.1/">
  <defs
     id="defs8711" />
  <sodipodi:namedview
     id="base"
     pagecolor="#ffffff"
     bordercolor="#666666"
     borderopacity="1.0"
     inkscape:pageopacity="0.0"
     inkscape:pageshadow="2"
     inkscape:zoom="0.21"
     inkscape:cx="900"
     inkscape:cy="923.80952"
     inkscape:document-units="px"
     inkscape:current-layer="layer1"
     height="1800px"
     width="1800px"
     inkscape:window-width="1280"
     inkscape:window-height="752"
     inkscape:window-x="1826"
     inkscape:window-y="97"
     inkscape:showpageshadow="2"
     inkscape:pagecheckerboard="0"
     inkscape:deskcolor="#d1d1d1"
     showgrid="false"
     inkscape:window-maximized="0" />
  <metadata
     id="metadata8714">
    <rdf:RDF>
      <cc:Work
         rdf:about="">
        <dc:format>image/svg+xml</dc:format>
        <dc:type
           rdf:resource="http://purl.org/dc/dcmitype/StillImage" />
      </cc:Work>
    </rdf:RDF>
  </metadata>
  <g
     inkscape:label="Calque 1"
     inkscape:groupmode="layer"
     id="layer1">
    <path
       id="path2574"
       style="color:#000000;fill:#000000;fill-rule:evenodd;-inkscape-stroke:none"
       d="M 1029.4824 3.7070312 C 1019.8498 3.707637 1010.0954 4.0782853 1000.2324 4.8359375 C 923.24928 10.753533 873.54871 50.622531 843.01172 95.029297 C 812.47473 139.43607 795.30018 186.7185 770.67773 220.47266 C 747.47911 252.27486 756.80082 285.81053 767.625 316.03125 C 778.44918 346.25197 795.67892 375.54349 817.09961 398.09766 C 831.36492 413.11823 850.44542 418.96075 866.23047 420.4668 C 882.01551 421.97284 896.16946 420.17439 908.86914 418.35547 C 921.56882 416.53655 932.91131 414.56161 940.58203 413.98047 C 945.97777 413.57168 948.78298 414.4032 948.58203 414.11523 C 975.37682 429.90765 985.90506 447.99634 990.20898 461.07812 C 970.83492 462.36733 952.69462 463.52255 937.99609 463.99414 L 938.29102 463.98633 C 855.77185 465.93843 788.72501 526.89019 772.94336 606.26172 C 768.79003 620.09425 753.80494 653.33654 733.32031 690.68945 C 712.69922 728.29121 686.36369 771.52178 658.83984 811.53711 C 631.316 851.55244 602.33879 888.49884 577.94531 912.85352 C 565.74858 925.03084 554.58242 933.97213 547.00391 938.42773 C 546.53285 938.70468 546.26865 938.77904 545.83789 939.01172 L 339.00586 735.16211 C 353.21898 673.93676 286.36404 545.37219 142.41992 543.07812 C -14.878037 540.63554 159.09271 737.16107 269.87305 765.31055 L 516.67773 1008.5566 L 526.57617 1010.7148 C 548.42961 1015.4801 566.83293 1007.9722 582.48242 998.77148 C 598.13192 989.57073 612.60118 977.16825 627.40234 962.39062 C 657.00467 932.83538 687.47771 893.42075 716.51367 851.20703 C 745.54963 808.99331 772.88191 764.12711 794.69727 724.34766 C 801.83039 711.34067 808.0843 699.31914 813.89844 687.75977 C 900.69563 887.08306 952.84722 1106.501 957.54492 1322.6738 C 950.59909 1325.285 935.69612 1330.5909 927.1875 1333.6934 L 927.88477 1330.0566 C 825.00501 1310.3195 739.35417 1258.2326 646.59766 1210.0605 C 559.63841 1164.8993 465.16463 1123.6322 348.35938 1125.9336 C 340.57236 1126.087 332.68521 1126.4339 324.69531 1126.9863 C 270.76753 1130.7152 229.46385 1163.4637 217.01172 1205.6562 C 204.55958 1247.8487 212.58085 1293.5555 227.0332 1340.6465 C 255.93791 1434.8284 315.92322 1536.1386 357.39648 1596.3164 L 374.50195 1584.5273 C 368.7785 1589.5228 363.33478 1594.5962 358.35156 1599.8184 C 340.20049 1618.8397 325.5998 1640.5509 324.03516 1667.8047 C 320.87664 1722.8232 357.23154 1764.6269 397.94141 1784.4121 C 438.65127 1804.1974 485.19646 1809.9323 525.00781 1810.0645 L 525.16406 1810.0645 L 1489.4199 1804.6211 L 1499.1934 1736.0723 C 1402.6297 1707.3715 1356.5349 1682.1333 1322.5527 1660.5664 C 1295.2241 1643.2221 1272.7961 1625.815 1240.7324 1612.8848 C 1276.6503 1581.6247 1301.2448 1539.7139 1315.4961 1494.6133 C 1339.4409 1418.836 1339.0796 1332.696 1328.4902 1255.041 L 1328.4785 1254.9512 L 1328.4648 1254.8613 C 1317.265 1175.7908 1309.3636 1113.7078 1306.3906 1059.2695 L 1733.5547 1007.3711 L 1734.9609 977.85547 C 1734.9609 977.85547 1735.4777 959.30769 1729.6973 933.38086 C 1723.9169 907.45403 1711.9654 871.31904 1687.748 827.66406 C 1641.1694 743.69984 1549.1571 632.14482 1369.5312 509.33203 C 1338.1473 481.40962 1295.2273 468.72016 1249.9199 461.72266 C 1249.8 461.70413 1249.6727 461.69618 1249.5527 461.67773 C 1297.4619 436.06126 1330.767 400.87391 1348.1992 360.15625 C 1371.86 304.89013 1365.5791 243.11948 1339.6934 188.7207 C 1291.1574 86.723002 1173.9709 3.6979441 1029.4824 3.7070312 z M 1029.4648 73.734375 C 1147.2455 73.976189 1240.6807 143.55162 1276.4863 218.79688 C 1295.5827 258.92768 1298.3661 298.69829 1283.8496 332.60547 C 1269.3331 366.51264 1236.7178 398.17701 1171.7812 418.50195 C 1162.4359 421.42692 1145.3431 424.75685 1134.5117 424.88672 C 1134.5017 424.88683 1134.4992 424.88477 1134.4902 424.88477 C 1128.2896 393.96229 1123.5246 362.06029 1121.0332 330.29883 C 1156.389 291.78858 1173.6392 252.6212 1168.709 214.42578 C 1163.2576 172.19248 1132.3572 141.96462 1097.3672 122.48438 C 1057.4993 100.28842 1008.998 87.488501 961.14258 83.408203 C 973.41408 78.972096 987.8881 75.990099 1005.5938 74.628906 C 1013.6524 74.009863 1021.6129 73.718254 1029.4648 73.734375 z M 989.78906 159.78906 C 1017.7229 164.9614 1044.0834 172.93679 1063.3164 183.64453 C 1087.2183 196.95161 1097.6498 210.71706 1099.2852 223.38672 C 1100.9205 236.05638 1095.201 258.44031 1060.4336 292.4707 L 1049.0977 303.56641 L 1049.9688 319.4043 C 1052.4918 365.30402 1059.6102 410.69425 1068.7578 453.21875 C 1068.9823 454.26229 1069.3759 455.22821 1069.6758 456.23828 C 1066.6339 456.38385 1063.8922 456.58938 1060.8848 456.74609 C 1054.908 427.25981 1035.2849 382.81984 981.35938 352.14844 C 963.97325 342.25962 948.51753 343.17792 935.29492 344.17969 C 922.07232 345.18145 909.88215 347.49579 898.94336 349.0625 C 888.00457 350.62921 878.41403 351.31131 872.87891 350.7832 C 867.34377 350.2551 867.52862 349.54843 867.85547 349.89258 C 855.25198 336.62218 840.87936 312.95429 833.52734 292.42773 C 826.17534 271.90118 830.7486 256.90173 827.23047 261.72461 C 838.17736 246.71785 847.32334 231.3441 855.64258 216.22266 C 913.87842 216.03516 922.59684 216.73317 994.08984 210.69336 L 989.78906 159.78906 z M 1124.9531 525.00781 C 1165.2682 524.36374 1204.9546 525.60768 1239.2363 530.90234 C 1268.5987 535.43722 1292.5259 543.19439 1309.4668 552.64453 L 1309.2402 552.98633 C 1314.9455 556.76609 1320.2756 560.48839 1325.7988 564.24023 C 1327.7216 566.04796 1329.512 567.87685 1330.9707 569.74414 C 1344.2243 586.71043 1349.3819 611.08963 1324.9414 665.56445 C 1265.9738 796.99571 1240.8226 888.25053 1237.1543 992.51758 C 1191.9684 944.26727 1085.4227 907.13803 984.82031 974.40625 C 984.2108 974.81416 983.68265 975.21622 983.08984 975.62305 C 954.06051 851.62121 911.81875 730.69205 858.67773 616.7207 L 840.34375 625.26953 L 840.75391 623.87695 L 841.09375 621.97852 C 850.16983 571.28236 889.75586 535.1541 939.94531 533.9668 L 940.09375 533.96289 L 940.24023 533.95898 C 988.82167 532.40029 1057.7613 526.08127 1124.9531 525.00781 z M 1409.1484 624.80078 C 1529.1997 718.72904 1592.8439 800.88468 1626.5371 861.62109 C 1646.6337 897.84781 1656.0235 926.26021 1660.6152 945.7168 L 1305.543 988.85742 C 1309.1987 897.29642 1333.0574 818.48087 1388.8086 694.21875 C 1399.7243 669.88901 1406.3949 646.60044 1409.1484 624.80078 z M 1238.2539 1073.3242 C 1239.7522 1100.468 1242.2588 1129.1524 1245.7051 1159.998 L 1026.418 1286.3457 C 1023.3045 1215.4404 1015.4407 1144.5172 1003.1738 1074.2285 C 1072.8144 1101.9326 1189.7492 1107.2447 1238.2539 1073.3242 z M 349.81445 1195.9043 C 449.91232 1193.8175 530.2029 1228.4882 614.33594 1272.1816 C 678.81029 1305.6657 744.85202 1344.6496 820.63672 1372.375 C 759.71133 1394.6266 691.10552 1420.4429 623.93359 1448.6621 C 551.02277 1479.2923 481.03886 1512.1905 426.83203 1546.3867 C 422.35791 1549.2092 418.15976 1552.0556 413.90234 1554.8965 C 375.64367 1499.0901 318.61609 1400.4701 293.95312 1320.1094 C 281.50567 1279.551 278.65757 1244.0758 284.14844 1225.4707 C 289.63929 1206.8656 295.09189 1199.2011 329.52344 1196.8203 C 336.3797 1196.3462 343.14126 1196.0434 349.81445 1195.9043 z M 1255.2949 1235.2598 C 1256.653 1245.2508 1257.6504 1254.0303 1259.1328 1264.498 C 1268.7672 1335.1499 1267.8839 1412.963 1248.748 1473.5215 C 1229.6123 1534.0799 1196.8478 1575.7747 1134.1973 1591.5781 L 1137.7109 1605.5059 C 991.58911 1612.5239 808.27053 1629.7549 640.92773 1627.9375 L 640.16797 1697.9336 C 838.30398 1700.0854 1053.4152 1676.8837 1201.4961 1673.1621 C 1232.5235 1682.6474 1249.1588 1696.894 1285.043 1719.668 C 1293.0366 1724.7412 1302.0309 1730.1037 1311.8516 1735.623 L 525.24023 1740.0645 C 492.9084 1739.9571 454.03803 1733.8468 428.54102 1721.4551 C 403.04399 1709.0634 392.39812 1698.359 393.92188 1671.8164 C 394.04625 1669.65 397.1057 1660.603 408.99414 1648.1445 C 420.88259 1635.686 440.0761 1620.7956 464.17969 1605.5898 C 512.38686 1575.1785 579.96983 1543.0582 651.04492 1513.1992 C 793.1951 1453.4814 947.17521 1403.2148 1006.3926 1378.7715 L 1028.166 1369.7832 L 1028.1465 1366.1387 L 1255.2949 1235.2598 z " />
  </g>
</svg>
