<?xml version="1.0" encoding="UTF-8" standalone="no"?>
<!-- Created with Inkscape (http://www.inkscape.org/) -->

<svg
   width="2428.1555"
   height="1732.3966"
   id="svg2"
   version="1.1"
   inkscape:version="1.2.2 (b0a8486, 2022-12-01)"
   sodipodi:docname="G1.svg"
   xmlns:inkscape="http://www.inkscape.org/namespaces/inkscape"
   xmlns:sodipodi="http://sodipodi.sourceforge.net/DTD/sodipodi-0.dtd"
   xmlns="http://www.w3.org/2000/svg"
   xmlns:svg="http://www.w3.org/2000/svg"
   xmlns:rdf="http://www.w3.org/1999/02/22-rdf-syntax-ns#"
   xmlns:cc="http://creativecommons.org/ns#"
   xmlns:dc="http://purl.org/dc/elements/1.1/">
  <defs
     id="defs4" />
  <sodipodi:namedview
     id="base"
     pagecolor="#ffffff"
     bordercolor="#666666"
     borderopacity="1.0"
     inkscape:pageopacity="0.0"
     inkscape:pageshadow="2"
     inkscape:zoom="0.20655396"
     inkscape:cx="842.39489"
     inkscape:cy="1062.6763"
     inkscape:document-units="px"
     inkscape:current-layer="layer1"
     showgrid="false"
     showguides="true"
     inkscape:guide-bbox="true"
     inkscape:window-width="1440"
     inkscape:window-height="833"
     inkscape:window-x="1644"
     inkscape:window-y="209"
     inkscape:window-maximized="0"
     inkscape:showpageshadow="2"
     inkscape:pagecheckerboard="0"
     inkscape:deskcolor="#d1d1d1" />
  <metadata
     id="metadata7">
    <rdf:RDF>
      <cc:Work
         rdf:about="">
        <dc:format>image/svg+xml</dc:format>
        <dc:type
           rdf:resource="http://purl.org/dc/dcmitype/StillImage" />
      </cc:Work>
    </rdf:RDF>
  </metadata>
  <g
     inkscape:label="Calque 1"
     inkscape:groupmode="layer"
     id="layer1"
     transform="translate(-27.18103,-65.879393)">
    <path
       id="path431"
       style="fill:#000000;fill-opacity:1;stroke:#000000;stroke-width:4.2112px;stroke-linecap:butt;stroke-linejoin:miter;stroke-opacity:1"
       d="M 232.27603,68.235886 C 157.27752,70.145811 94.575346,83.493302 47.641691,125.65995 c 0,0 83.887979,89.00862 126.019749,88.54986 49.00664,-0.53385 41.00314,-32.30238 41.00314,-32.30238 88.96288,-24.59126 234.39283,-49.45327 305.39581,-7.87718 43.67721,39.03792 -5.14643,72.19365 -23.95755,107.25786 -138.18408,-2.55536 -128.33137,36.78137 -127.18323,187.3444 1.01183,132.68311 459.10135,421.41797 904.40579,680.97709 -39.846,182.6446 -138.5212,391.708 -253.9919,527.3785 -313.85173,0.5119 -629.1497,-5.9133 -929.336841,3.0028 -51.089436,1.5173 -53.939949,78.3942 -60.3118,116.1049 l 1348.611841,-39.6971 14.2073,-0.3827 11.001,-8.9571 c 117.1398,-94.7168 197.6028,-247.1453 255.1983,-376.2036 115.3754,65.7794 221.9575,126.7378 298.7772,173.1701 107.7839,81.511 -38.9296,188.875 18.7892,228.8091 51.7013,35.7704 314.8446,-19.3949 477.7739,15.1353 -189.7027,-147.5998 -389.5858,-345.0781 -593.6757,-563.179 0,0 -368.6147,-497.08029 -617.8534,-671.37394 C 1094.4362,449.86512 878.58961,350.38052 782.60226,344.22257 768.69894,307.10164 749.31758,272.38359 794.03783,259.72408 846.92331,244.75327 810.93489,145.054 817.39548,88.792846 L 490.69262,79.441189 C 394.57027,75.853564 307.27455,66.325961 232.27603,68.235886 Z M 507.82757,417.34961 C 625.27358,410.34503 1082.6887,582.47705 1321.4052,761.8036 1462.493,867.79071 2000.3906,1486.508 2000.3906,1486.508 1453.6168,1205.8053 441.25595,699.62825 479.93621,431.82087 c 1.27295,-8.81359 11.11336,-13.47063 27.89136,-14.47126 z M 1349.678,1193.5684 c 81.3962,47.0333 159.7771,92.1671 235.5174,135.3336 -54.615,123.0229 -130.237,262.3165 -224.8095,343.7334 -77.1701,2.128 -154.8739,3.1181 -232.7134,3.7197 104.2379,-138.6525 184.6854,-309.6581 222.0055,-482.7868 z m 753.6705,414.2704 69.5343,89.2902 -68.5804,7.5824 z" />
  </g>
</svg>
